<?xml version="1.0" encoding="UTF-8"?>
<svg version="1.1" xmlns="http://www.w3.org/2000/svg" width="225" height="225">
<path d="M0 0 C0.89160324 -0.0065712 1.78320648 -0.0131424 2.701828 -0.01991272 C5.65131724 -0.03961494 8.60075556 -0.05130299 11.55029297 -0.0612793 C12.56017147 -0.06535482 13.57004997 -0.06943035 14.61053085 -0.07362938 C19.95828801 -0.09447942 25.3060196 -0.10878441 30.65380859 -0.11816406 C36.16149956 -0.12921168 41.66878466 -0.16359583 47.17633247 -0.20333576 C51.42474081 -0.22955736 55.67305336 -0.23786095 59.92153549 -0.24144554 C61.95079151 -0.24629904 63.9800436 -0.2578775 66.00922012 -0.27648354 C88.30858366 -0.46820387 88.30858366 -0.46820387 96.78857422 6.25512695 C97.38798828 6.9718457 97.98740234 7.68856445 98.60498047 8.42700195 C99.22244141 9.1334082 99.83990234 9.83981445 100.47607422 10.56762695 C104.67434085 17.04439857 105.61252423 22.95158654 105.5715332 30.47949219 C105.57839645 31.37328583 105.5852597 32.26707947 105.59233093 33.18795776 C105.61052102 36.12066876 105.60677262 39.05284081 105.60107422 41.9855957 C105.60563969 44.03768587 105.61094635 46.08977452 105.61695862 48.14186096 C105.62587439 52.43464383 105.62348395 56.7272405 105.61352539 61.02001953 C105.60203665 66.50533383 105.62225389 71.99000427 105.65144253 77.47523403 C105.66983925 81.71075991 105.66950515 85.94613248 105.66380501 90.18168831 C105.66365223 92.20337896 105.66966079 94.2250803 105.68209648 96.24673271 C105.69707071 99.07993173 105.68628242 101.91195354 105.66918945 104.74511719 C105.68369141 105.98215645 105.68369141 105.98215645 105.69848633 107.2441864 C105.5941224 115.55717704 102.48255448 122.54268241 96.87841797 128.6730957 C90.2629002 134.48810562 82.89877455 135.32656396 74.41088867 135.35400391 C73.52743271 135.3605751 72.64397675 135.3671463 71.73374939 135.37391663 C68.81191925 135.39361571 65.89014046 135.40530545 62.96826172 135.4152832 C61.46812058 135.42139649 61.46812058 135.42139649 59.93767357 135.42763329 C54.64294009 135.4484808 49.34823242 135.46278755 44.0534668 135.47216797 C38.59724198 135.4832222 33.14142611 135.51761471 27.68534565 135.55733967 C23.47901169 135.58354292 19.27277458 135.59186317 15.0663662 135.59544945 C13.05582102 135.60030675 11.04527992 135.61189619 9.03481483 135.63048744 C6.21323294 135.654955 3.39270143 135.65389984 0.57104492 135.64697266 C-0.6613945 135.66618774 -0.6613945 135.66618774 -1.91873169 135.68579102 C-10.29064616 135.61132768 -17.17502519 132.4611325 -23.32861328 126.8215332 C-29.25131138 120.34502437 -29.98251307 113.77693585 -30.00952148 105.32861328 C-30.01937828 103.98879898 -30.01937828 103.98879898 -30.0294342 102.62191772 C-30.04913447 99.66762198 -30.06082327 96.71337703 -30.07080078 93.7590332 C-30.07487631 92.74790655 -30.07895184 91.7367799 -30.08315086 90.69501305 C-30.10399883 85.34192485 -30.11830541 79.98886218 -30.12768555 74.63574219 C-30.13874016 69.11898525 -30.173133 63.60263273 -30.21285725 58.08601856 C-30.23905863 53.83336154 -30.24738058 49.58080032 -30.25096703 45.32806969 C-30.25582477 43.29519613 -30.26741548 41.26232661 -30.28600502 39.22953224 C-30.31046863 36.37682079 -30.3094181 33.52514848 -30.30249023 30.67236328 C-30.31530029 29.84138626 -30.32811035 29.01040924 -30.34130859 28.1542511 C-30.26735586 19.75013188 -27.14082625 12.86087587 -21.47705078 6.6809082 C-15.00553396 0.76277525 -8.44220419 0.02703936 0 0 Z M2.92138672 38.02075195 C1.32607143 40.3380663 0.24752084 42.57815481 -0.83251953 45.17700195 C-1.34814453 46.24563477 -1.86376953 47.31426758 -2.39501953 48.4152832 C-8.37201031 61.3319051 -13.39493501 77.8288557 -9.83251953 92.17700195 C-6.83176041 96.16046581 -3.45257475 97.52075574 1.16748047 99.17700195 C2.36373047 99.67200195 3.55998047 100.16700195 4.79248047 100.67700195 C7.8946589 101.92875816 11.00580408 103.08624873 14.16748047 104.17700195 C16.29569931 101.3598855 16.29569931 101.3598855 18.16748047 98.17700195 C17.83748047 97.18700195 17.50748047 96.19700195 17.16748047 95.17700195 C14.15900629 93.95179931 14.15900629 93.95179931 11.16748047 93.17700195 C11.49748047 92.51700195 11.82748047 91.85700195 12.16748047 91.17700195 C13.56933594 91.61012695 13.56933594 91.61012695 14.99951172 92.05200195 C31.58947062 96.86788878 46.7328749 96.25472836 63.16748047 91.17700195 C63.49748047 91.83700195 63.82748047 92.49700195 64.16748047 93.17700195 C63.19810547 93.44512695 62.22873047 93.71325195 61.22998047 93.98950195 C60.21935547 94.38137695 59.20873047 94.77325195 58.16748047 95.17700195 C57.67248047 96.66200195 57.67248047 96.66200195 57.16748047 98.17700195 C59.03926163 101.3598855 59.03926163 101.3598855 61.16748047 104.17700195 C65.56833825 102.658741 69.86619857 100.95684274 74.16748047 99.17700195 C75.80716797 98.58918945 75.80716797 98.58918945 77.47998047 97.98950195 C80.9566537 96.39602672 82.84539765 95.23998279 85.16748047 92.17700195 C89.7562481 74.67861449 81.68515109 55.07855302 73.16748047 40.17700195 C72.56806641 39.0477832 72.56806641 39.0477832 71.95654297 37.89575195 C69.04108088 35.09487134 65.44695039 34.44089941 61.60498047 33.42700195 C60.82445312 33.20657227 60.04392578 32.98614258 59.23974609 32.7590332 C55.26386319 31.59276351 55.26386319 31.59276351 51.16748047 31.17700195 C50.50748047 32.49700195 49.84748047 33.81700195 49.16748047 35.17700195 C41.57748047 35.17700195 33.98748047 35.17700195 26.16748047 35.17700195 C25.50748047 33.85700195 24.84748047 32.53700195 24.16748047 31.17700195 C17.47492271 31.17700195 8.13590313 33.74031414 2.92138672 38.02075195 Z " fill="#5866E9" transform="translate(74.83251953125,44.822998046875)"/>
<path d="M0 0 C3.45323546 0.88797483 4.00035185 2.00058642 5.875 5.125 C7.28610912 8.81084786 6.98464885 11.54922406 5.7890625 15.265625 C4.60766283 17.86236486 3.62938607 18.86296819 1 20 C-3.37434243 20.63626799 -5.25073277 20.53751779 -8.875 17.9375 C-11.43175566 14.40316129 -12 12.35173775 -12 8 C-9.56968663 1.55966956 -6.90492067 -0.56366699 0 0 Z " fill="#7E85DC" transform="translate(99,106)"/>
<path d="M0 0 C3.49359772 2.56197166 4.7868934 4.26744607 6 8.4375 C6 12.53094236 5.22004022 14.59065251 3 18 C-0.75047482 20.50031654 -2.55856266 20.53603554 -7 20 C-10.22287355 17.61787607 -11.68331921 15.91045728 -13 12.125 C-13 8.06655753 -11.96854587 5.52980639 -10 2 C-6.92000715 -0.44275295 -3.82844192 -0.54692027 0 0 Z " fill="#6873E6" transform="translate(132,106)"/>
<path d="M0 0 C1.64369587 2.81776435 2.04599583 4.49404592 1.75 7.75 C1 10 1 10 -1 11 C-1.33 11.99 -1.66 12.98 -2 14 C-3.65 13.67 -5.3 13.34 -7 13 C-6.01 12.67 -5.02 12.34 -4 12 C-5.15173355 9.53199953 -6.04783565 7.95216435 -8 6 C-8.99 6.66 -9.98 7.32 -11 8 C-12.36741555 5.74778616 -13.04066478 4.47442242 -12.8125 1.8125 C-12.544375 1.214375 -12.27625 0.61625 -12 0 C-8.06669338 -1.31110221 -3.87420208 -1.73671128 0 0 Z " fill="#5664EB" transform="translate(102,110)"/>
<path d="M0 0 C-0.33 0.66 -0.66 1.32 -1 2 C-1.99 2.33 -2.98 2.66 -4 3 C-4.33 3.66 -4.66 4.32 -5 5 C-4.01 4.34 -3.02 3.68 -2 3 C-1.01 3 -0.02 3 1 3 C1 5.97 1 8.94 1 12 C-0.32 12.33 -1.64 12.66 -3 13 C-3.33 11.35 -3.66 9.7 -4 8 C-4.66 8 -5.32 8 -6 8 C-6.33 8.99 -6.66 9.98 -7 11 C-7.99 10.34 -8.98 9.68 -10 9 C-9.4140625 2.84765625 -9.4140625 2.84765625 -9 1 C-6.04335481 -0.4783226 -3.25770263 -0.06032783 0 0 Z " fill="#5764EB" transform="translate(131,109)"/>
<path d="M0 0 C4.93353995 7.40030993 4.18493756 14.4421176 3 23 C2.67 23.66 2.34 24.32 2 25 C1.34 25 0.68 25 0 25 C0 25.66 0 26.32 0 27 C-1.65 27 -3.3 27 -5 27 C-5 27.66 -5 28.32 -5 29 C-8.47307692 31.10865385 -8.47307692 31.10865385 -11.140625 30.55859375 C-11.75421875 30.37425781 -12.3678125 30.18992188 -13 30 C-12.14535156 29.76152344 -11.29070312 29.52304688 -10.41015625 29.27734375 C-6.57702296 27.74319589 -3.37428232 26.44266205 -1 23 C0.90973899 15.58209808 0.37444357 7.59360441 0 0 Z " fill="#7882DF" transform="translate(160,114)"/>
<path d="M0 0 C0.185625 0.8971875 0.185625 0.8971875 0.375 1.8125 C0.95475985 4.26231348 0.95475985 4.26231348 3 7 C3.99 6.34 4.98 5.68 6 5 C6.66 5.66 7.32 6.32 8 7 C8.33 7 8.66 7 9 7 C9.3125 9.3125 9.3125 9.3125 9 12 C6.75 13.9375 6.75 13.9375 4 15 C1.8125 14.5 1.8125 14.5 0 13 C-2.48409167 8.85984721 -1.97614423 5.61450002 -1 1 C-0.67 0.67 -0.34 0.34 0 0 Z " fill="#5D6AE9" transform="translate(89,110)"/>
<path d="M0 0 C5.06998019 0.65419099 9.41990777 2.8546409 14 5 C14 5.99 14 6.98 14 8 C9.34517848 8.42316559 6.18386825 6.93697604 2 5 C1.01 4.67 0.02 4.34 -1 4 C-0.67 2.68 -0.34 1.36 0 0 Z " fill="#6F77E3" transform="translate(71,142)"/>
<path d="M0 0 C0 0.66 0 1.32 0 2 C-0.94875 2.45375 -1.8975 2.9075 -2.875 3.375 C-6.00313679 4.80238254 -6.00313679 4.80238254 -8 7 C-8 5.68 -8 4.36 -8 3 C-8.7425 3.33 -9.485 3.66 -10.25 4 C-13 5 -13 5 -17 5 C-17 4.34 -17 3.68 -17 3 C-14.73194205 2.30190555 -12.46133393 1.61628983 -10.1875 0.9375 C-9.54490234 0.73833984 -8.90230469 0.53917969 -8.24023438 0.33398438 C-3.33984375 -1.11328125 -3.33984375 -1.11328125 0 0 Z " fill="#9FA4E9" transform="translate(139,136)"/>
<path d="M0 0 C5.94 1.485 5.94 1.485 12 3 C10.68 4.32 9.36 5.64 8 7 C7.67 7.99 7.34 8.98 7 10 C6.34 10 5.68 10 5 10 C5 8.68 5 7.36 5 6 C3.02 5.01 1.04 4.02 -1 3 C-0.67 2.01 -0.34 1.02 0 0 Z " fill="#9296E2" transform="translate(87,135)"/>
<path d="M0 0 C0.99 0.33 1.98 0.66 3 1 C-0.3621637 4.65882521 -3.36050852 7.14420341 -8 9 C-8.66 8.67 -9.32 8.34 -10 8 C-8.375 5 -8.375 5 -6 2 C-2.75 1.625 -2.75 1.625 0 2 C0 1.34 0 0.68 0 0 Z " fill="#727DE2" transform="translate(170,170)"/>
<path d="M0 0 C0.99 0 1.98 0 3 0 C3.33 1.32 3.66 2.64 4 4 C9.94 4.33 15.88 4.66 22 5 C22 5.33 22 5.66 22 6 C18.70849875 6.08685287 15.4172904 6.14033895 12.125 6.1875 C11.18785156 6.21263672 10.25070313 6.23777344 9.28515625 6.26367188 C8.38925781 6.27333984 7.49335937 6.28300781 6.5703125 6.29296875 C5.74289551 6.3086792 4.91547852 6.32438965 4.06298828 6.34057617 C3.38220215 6.22818604 2.70141602 6.1157959 2 6 C0 3 0 3 0 0 Z " fill="#9FA5E6" transform="translate(99,75)"/>
<path d="M0 0 C0.79560764 2.91499943 1.25322499 5.74561419 1.5625 8.75 C1.64628906 9.54921875 1.73007813 10.3484375 1.81640625 11.171875 C1.87699219 11.77515625 1.93757813 12.3784375 2 13 C3.32 12.67 4.64 12.34 6 12 C6 12.66 6 13.32 6 14 C4.68 14.33 3.36 14.66 2 15 C-0.8360634 11.79401528 -1.73837062 9.27327987 -2 5 C-1.0625 2.125 -1.0625 2.125 0 0 Z " fill="#8289DE" transform="translate(121,110)"/>
<path d="M0 0 C2.375 2 2.375 2 4 4 C3.01 4.33 2.02 4.66 1 5 C0.67 4.01 0.34 3.02 0 2 C-3.3 2.66 -6.6 3.32 -10 4 C-10 3.34 -10 2.68 -10 2 C-6.59575912 -0.09491746 -3.96585158 -0.49573145 0 0 Z " fill="#868EDB" transform="translate(132,106)"/>
<path d="M0 0 C0.3449145 1.33038449 0.67516582 2.66457061 1 4 C1.226875 4.825 1.45375 5.65 1.6875 6.5 C2.04888437 9.39107497 1.52775619 10.5735637 0 13 C-2.22641709 8.67813153 -1.9957658 5.70725649 -1 1 C-0.67 0.67 -0.34 0.34 0 0 Z " fill="#8990E4" transform="translate(89,110)"/>
<path d="M0 0 C0.66 0 1.32 0 2 0 C2 0.66 2 1.32 2 2 C2.66 2 3.32 2 4 2 C6.04169485 4.90548882 7 6.40142046 7 10 C3.60582235 6.87378374 1.3937282 4.43458973 0 0 Z " fill="#7E85E0" transform="translate(47,163)"/>
<path d="M0 0 C-0.53069061 3.82097239 -1.49701566 6.06171403 -4 9 C-4 7.68 -4 6.36 -4 5 C-4.66 4.67 -5.32 4.34 -6 4 C-2.25 0 -2.25 0 0 0 Z " fill="#777EE1" transform="translate(75,87)"/>
<path d="M0 0 C0.99 0.33 1.98 0.66 3 1 C1.8141763 4.37503669 0.72426311 6.64722731 -2 9 C-1.41196203 5.97580475 -0.77321882 2.98241547 0 0 Z " fill="#7A85E0" transform="translate(175,162)"/>
<path d="M0 0 C0 0.66 0 1.32 0 2 C-2.31 2.33 -4.62 2.66 -7 3 C-6.67 2.01 -6.34 1.02 -6 0 C-3 -1 -3 -1 0 0 Z " fill="#8B8CD5" transform="translate(139,136)"/>
<path d="M0 0 C0.33 1.32 0.66 2.64 1 4 C0.34 4 -0.32 4 -1 4 C-1.66 5.65 -2.32 7.3 -3 9 C-3.66 9 -4.32 9 -5 9 C-3.7508258 5.54074837 -2.32472205 2.85306797 0 0 Z " fill="#828AE0" transform="translate(52,53)"/>
<path d="M0 0 C0.99 0.33 1.98 0.66 3 1 C3 1.66 3 2.32 3 3 C0.69 3.33 -1.62 3.66 -4 4 C-2.68 2.68 -1.36 1.36 0 0 Z M3 1 C5 2 5 2 5 2 Z " fill="#7077DF" transform="translate(57,49)"/>
<path d="M0 0 C0.33 1.32 0.66 2.64 1 4 C-3 4 -3 4 -4.75 2.5 C-5.1625 2.005 -5.575 1.51 -6 1 C-3.92446352 0.4465236 -2.15634036 0 0 0 Z " fill="#777FE2" transform="translate(60,172)"/>
<path d="M0 0 C3.36720387 1.39332574 4.9859524 2.9789286 7 6 C6.01 6 5.02 6 4 6 C0 1.54285714 0 1.54285714 0 0 Z " fill="#898EE3" transform="translate(167,49)"/>
</svg>
